<?xml version="1.0" encoding="UTF-8" ?>
<svg width="279pt" height="51pt" viewBox="0 0 279 51" version="1.1" xmlns="http://www.w3.org/2000/svg">
<g id="#fea34bff">
<path fill="#fea34b" opacity="1.00" d=" M 19.48 0.00 L 27.70 0.00 C 34.80 0.40 40.71 5.70 43.74 11.85 C 42.71 12.77 41.68 13.68 40.66 14.59 C 38.08 7.94 31.28 3.01 24.03 3.48 C 18.65 3.44 13.95 6.59 10.63 10.59 C 9.84 10.98 9.04 11.35 8.24 11.71 C 7.82 11.22 7.00 10.25 6.59 9.77 C 9.53 5.06 14.15 1.56 19.48 0.00 Z" />
</g>
<g id="#fea24bff">
<path fill="#fea24b" opacity="1.00" d=" M 92.30 3.07 C 96.12 2.94 99.94 3.00 103.76 3.01 C 105.47 5.05 107.18 7.09 108.81 9.20 C 105.50 10.02 102.10 10.23 98.71 10.22 C 98.38 9.90 97.74 9.26 97.42 8.94 C 96.83 9.26 95.64 9.91 95.05 10.23 C 92.45 9.28 89.57 9.48 87.07 8.22 C 88.82 6.52 90.59 4.83 92.30 3.07 Z" />
</g>
<g id="#fe9f4aff">
<path fill="#fe9f4a" opacity="1.00" d=" M 131.32 3.10 C 137.54 2.39 143.54 4.54 149.77 3.82 C 149.67 4.53 149.46 5.94 149.36 6.65 C 148.57 6.68 146.99 6.75 146.20 6.78 C 147.14 8.21 147.37 10.34 149.01 11.15 C 152.02 9.25 153.04 5.13 155.94 3.07 C 161.98 2.43 167.82 4.58 173.89 3.83 C 173.78 4.53 173.55 5.94 173.43 6.65 C 172.64 6.69 171.06 6.76 170.27 6.79 C 171.15 8.44 172.05 10.08 172.95 11.72 C 170.06 11.71 167.16 11.72 164.27 11.70 C 163.34 10.06 162.40 8.42 161.39 6.83 C 160.19 8.47 158.99 10.11 157.76 11.73 C 151.87 11.72 145.97 11.75 140.08 11.68 C 139.22 10.06 138.36 8.44 137.49 6.83 C 136.10 8.37 134.80 10.00 133.58 11.67 C 130.67 11.73 127.76 11.72 124.85 11.72 C 126.99 8.83 129.26 6.05 131.32 3.10 Z" />
</g>
<g id="#fe9c48ff">
<path fill="#fe9c48" opacity="1.00" d=" M 191.81 2.96 C 195.04 3.00 198.26 3.00 201.49 3.00 C 201.03 4.18 200.58 5.36 200.12 6.53 C 208.21 6.52 216.30 6.52 224.38 6.53 C 224.29 7.46 224.09 9.33 223.99 10.26 C 215.49 10.32 206.99 10.16 198.49 10.33 C 198.30 10.57 197.93 11.06 197.75 11.30 C 194.73 11.22 191.74 10.82 188.75 10.46 C 185.07 10.13 181.38 10.27 177.69 10.27 C 177.79 9.34 177.97 7.47 178.06 6.53 C 182.14 6.52 186.22 6.53 190.31 6.50 C 190.81 5.32 191.31 4.14 191.81 2.96 Z" />
</g>
<g id="#ffa64dff">
<path fill="#ffa64d" opacity="1.00" d=" M 230.08 9.05 C 230.31 7.34 230.30 5.54 230.93 3.90 C 246.19 3.73 261.46 3.87 276.73 3.85 C 276.55 5.10 276.26 6.32 275.84 7.49 C 263.74 7.67 251.64 7.54 239.54 7.54 C 239.48 7.88 239.36 8.55 239.31 8.89 C 236.24 9.12 233.16 9.10 230.08 9.05 Z" />
</g>
<g id="#fd8d41ff">
<path fill="#fd8d41" opacity="1.00" d=" M 80.49 14.46 C 82.67 12.37 84.83 10.25 87.07 8.22 C 89.57 9.48 92.45 9.28 95.05 10.23 L 95.24 10.85 C 93.94 12.70 91.93 13.92 90.42 15.60 C 87.11 15.26 83.80 14.89 80.49 14.46 Z" />
</g>
<g id="#fc7e3aff">
<path fill="#fc7e3a" opacity="1.00" d=" M 21.63 16.18 C 20.15 14.22 15.30 11.85 18.08 9.17 C 21.03 8.52 22.48 11.88 24.26 13.58 C 26.71 11.98 28.36 8.31 31.76 9.25 C 32.64 12.95 28.69 14.93 26.06 16.57 C 27.99 16.41 31.36 15.12 31.97 17.87 C 32.34 21.16 28.47 19.37 26.64 19.69 C 26.59 20.07 26.51 20.83 26.47 21.21 C 23.79 19.42 20.75 18.39 17.52 19.25 L 16.95 19.30 C 16.69 16.39 19.32 15.81 21.63 16.18 Z" />
</g>
<g id="#fd8940ff">
<path fill="#fd8940" opacity="1.00" d=" M 108.81 9.20 L 108.95 9.17 C 110.61 11.16 112.27 13.16 113.87 15.21 C 110.54 15.94 107.14 16.24 103.74 16.32 C 102.05 14.29 100.36 12.27 98.71 10.22 C 102.10 10.23 105.50 10.02 108.81 9.20 Z" />
</g>
<g id="#fd8f42ff">
<path fill="#fd8f42" opacity="1.00" d=" M 230.08 9.05 C 233.16 9.10 236.24 9.12 239.31 8.89 C 238.99 11.22 238.77 13.56 238.53 15.89 C 235.48 15.91 232.43 15.96 229.39 16.03 C 229.63 13.71 229.86 11.38 230.08 9.05 Z" />
</g>
<g id="#fc7335ff">
<path fill="#fc7335" opacity="1.00" d=" M 4.78 25.94 C 2.85 20.60 3.93 14.66 6.59 9.77 C 7.00 10.25 7.82 11.22 8.24 11.71 C 9.04 11.35 9.84 10.98 10.63 10.59 C 9.31 13.22 7.86 15.94 7.81 18.95 C 7.60 21.48 8.52 25.23 4.74 25.37 C 5.94 25.89 7.12 26.43 8.28 27.01 C 6.09 27.00 3.89 26.94 1.69 26.85 C 2.47 26.62 4.01 26.17 4.78 25.94 Z" />
</g>
<g id="#fd8c41ff">
<path fill="#fd8c41" opacity="1.00" d=" M 241.70 9.66 C 244.82 9.63 247.93 9.64 251.05 9.65 C 252.25 11.95 253.41 14.26 254.45 16.64 C 251.48 16.81 248.51 17.02 245.55 17.26 C 244.26 14.73 242.97 12.20 241.70 9.66 Z" />
<path fill="#fd8c41" opacity="1.00" d=" M 265.26 9.70 C 268.40 9.62 271.54 9.63 274.68 9.65 C 272.91 12.19 271.10 14.70 269.29 17.21 C 266.42 16.97 263.56 16.75 260.69 16.55 C 262.13 14.22 263.71 11.97 265.26 9.70 Z" />
</g>
<g id="#fd893fff">
<path fill="#fd893f" opacity="1.00" d=" M 186.16 15.80 C 187.07 14.04 187.88 12.24 188.75 10.46 C 191.74 10.82 194.73 11.22 197.75 11.30 C 197.07 12.98 196.43 14.68 195.76 16.37 C 192.57 16.11 189.37 15.90 186.16 15.80 Z" />
</g>
<g id="#fb6931ff">
<path fill="#fb6931" opacity="1.00" d=" M 43.74 11.85 C 46.14 17.42 46.20 23.95 43.50 29.43 C 42.43 28.70 41.36 27.97 40.31 27.23 C 41.88 23.19 41.86 18.73 40.66 14.59 C 41.68 13.68 42.71 12.77 43.74 11.85 Z" />
</g>
<g id="#fc823cff">
<path fill="#fc823c" opacity="1.00" d=" M 125.00 13.79 C 128.60 13.40 132.78 14.90 135.93 12.64 C 139.35 12.25 142.75 12.53 145.98 13.74 C 154.90 13.94 163.83 13.68 172.75 13.84 C 172.69 14.63 172.57 16.19 172.51 16.97 C 162.36 17.65 152.08 16.32 141.99 17.67 C 139.28 18.46 136.47 17.93 133.76 17.45 C 130.75 16.99 127.69 17.10 124.65 17.11 C 124.74 16.28 124.91 14.62 125.00 13.79 Z" />
</g>
<g id="#fc7636ff">
<path fill="#fc7636" opacity="1.00" d=" M 72.76 21.89 C 75.28 19.36 77.88 16.90 80.49 14.46 C 83.80 14.89 87.11 15.26 90.42 15.60 C 88.27 17.69 86.09 19.76 83.94 21.86 C 80.21 21.91 76.49 21.90 72.76 21.89 Z" />
<path fill="#fc7636" opacity="1.00" d=" M 113.87 15.21 L 113.98 15.19 C 115.85 17.42 117.71 19.66 119.57 21.89 C 115.81 21.90 112.06 21.92 108.30 21.86 C 106.80 19.99 105.27 18.15 103.74 16.32 C 107.14 16.24 110.54 15.94 113.87 15.21 Z" />
<path fill="#fc7636" opacity="1.00" d=" M 176.08 16.45 C 179.32 16.49 182.55 16.56 185.78 16.47 L 186.16 15.80 C 189.37 15.90 192.57 16.11 195.76 16.37 C 205.29 16.67 214.84 16.40 224.37 16.50 C 224.27 17.43 224.08 19.30 223.99 20.24 C 214.01 20.23 204.04 20.25 194.07 20.22 C 193.31 21.94 192.55 23.65 191.83 25.38 C 188.64 25.72 185.42 25.67 182.26 25.11 C 182.94 23.49 183.62 21.87 184.30 20.24 C 181.39 20.24 178.48 20.24 175.57 20.23 C 175.73 18.97 175.91 17.71 176.08 16.45 Z" />
</g>
<g id="#fc7938ff">
<path fill="#fc7938" opacity="1.00" d=" M 229.39 16.03 C 232.43 15.96 235.48 15.91 238.53 15.89 C 238.36 17.62 238.18 19.35 238.00 21.07 C 234.95 21.05 231.91 21.01 228.87 20.97 C 229.04 19.32 229.21 17.67 229.39 16.03 Z" />
</g>
<g id="#fc7536ff">
<path fill="#fc7536" opacity="1.00" d=" M 245.55 17.26 C 248.51 17.02 251.48 16.81 254.45 16.64 L 254.68 16.63 C 255.43 18.22 256.21 19.79 257.04 21.34 C 258.26 19.82 259.37 18.21 260.38 16.53 L 260.69 16.55 C 263.56 16.75 266.42 16.97 269.29 17.21 C 267.64 19.54 266.04 21.90 264.21 24.09 C 259.17 22.96 253.91 22.45 248.86 23.76 C 247.73 21.61 246.63 19.44 245.55 17.26 Z" />
</g>
<g id="#fb6c32ff">
<path fill="#fb6c32" opacity="1.00" d=" M 132.49 19.64 C 132.81 19.09 133.45 18.00 133.76 17.45 C 136.47 17.93 139.28 18.46 141.99 17.67 C 142.04 18.18 142.12 19.19 142.16 19.69 C 151.95 19.52 161.74 19.65 171.53 19.62 C 171.44 20.40 171.27 21.96 171.18 22.74 C 161.09 22.78 150.99 22.63 140.89 22.80 C 140.62 23.09 140.06 23.68 139.79 23.97 C 137.02 24.20 134.24 24.12 131.47 23.95 L 130.99 22.75 C 128.88 22.73 126.76 22.72 124.65 22.70 C 124.78 21.67 124.90 20.64 125.03 19.61 C 127.52 19.61 130.00 19.62 132.49 19.64 Z" />
</g>
<g id="#fa5c2aff">
<path fill="#fa5c2a" opacity="1.00" d=" M 17.52 19.25 C 20.75 18.39 23.79 19.42 26.47 21.21 C 28.15 21.78 29.98 21.76 31.73 22.09 C 31.76 22.80 31.83 24.23 31.87 24.95 C 30.22 25.68 28.41 25.69 26.64 25.70 C 26.61 27.45 26.51 29.21 26.00 30.89 C 25.23 30.87 23.68 30.81 22.91 30.78 C 22.69 29.09 22.54 27.40 22.39 25.70 C 20.70 25.46 17.52 26.36 17.15 23.90 C 16.96 20.80 20.92 21.83 22.88 21.46 C 22.24 19.21 19.05 20.66 17.52 19.25 Z" />
</g>
<g id="#fb662fff">
<path fill="#fb662f" opacity="1.00" d=" M 228.87 20.97 C 231.91 21.01 234.95 21.05 238.00 21.07 C 237.83 22.68 237.65 24.30 237.49 25.91 C 234.43 25.99 231.38 26.05 228.33 26.08 C 228.51 24.38 228.68 22.67 228.87 20.97 Z" />
</g>
<g id="#fa5b2aff">
<path fill="#fa5b2a" opacity="1.00" d=" M 248.86 23.76 C 253.91 22.45 259.17 22.96 264.21 24.09 C 262.72 25.74 264.26 27.43 264.93 29.04 C 259.16 29.07 253.39 29.19 247.64 28.64 C 248.34 27.67 249.03 26.69 249.74 25.72 C 249.52 25.23 249.08 24.25 248.86 23.76 Z" />
</g>
<g id="#fa5929ff">
<path fill="#fa5929" opacity="1.00" d=" M 77.36 23.85 C 80.08 23.77 82.80 23.76 85.53 23.75 C 85.29 24.58 84.83 26.25 84.60 27.09 C 86.80 27.09 89.01 27.09 91.21 27.09 C 91.25 27.56 91.33 28.49 91.36 28.96 C 86.19 28.93 81.01 28.91 75.83 28.95 C 76.35 27.25 76.86 25.55 77.36 23.85 Z" />
</g>
<g id="#fa5125ff">
<path fill="#fa5125" opacity="1.00" d=" M 98.84 32.83 C 99.81 29.79 100.76 26.76 101.79 23.74 C 104.45 23.77 107.11 23.76 109.78 23.76 C 109.51 24.59 108.98 26.24 108.72 27.07 C 111.00 27.08 113.29 27.10 115.58 27.15 C 115.68 28.88 115.80 30.60 115.93 32.32 C 113.45 32.67 110.94 32.88 108.44 33.01 C 108.21 31.97 107.98 30.94 107.73 29.91 C 107.51 30.74 107.07 32.42 106.85 33.25 L 106.60 33.24 C 104.01 33.06 101.43 32.93 98.84 32.83 Z" />
</g>
<g id="#fa5628ff">
<path fill="#fa5628" opacity="1.00" d=" M 131.47 23.95 C 134.24 24.12 137.02 24.20 139.79 23.97 L 139.42 25.43 C 150.13 25.44 160.85 25.40 171.56 25.45 C 171.46 26.28 171.27 27.93 171.17 28.75 C 160.21 28.81 149.24 28.64 138.29 28.83 C 138.10 29.20 137.74 29.93 137.55 30.30 C 134.45 30.16 131.32 30.10 128.25 30.68 C 128.43 30.20 128.80 29.23 128.98 28.75 C 126.99 28.75 125.00 28.76 123.02 28.76 C 123.13 27.65 123.24 26.55 123.35 25.44 C 126.06 25.13 129.55 26.45 131.47 23.95 Z" />
</g>
<g id="#fa5226ff">
<path fill="#fa5226" opacity="1.00" d=" M 180.17 29.99 C 180.87 28.36 181.57 26.73 182.26 25.11 C 185.42 25.67 188.64 25.72 191.83 25.38 L 191.46 26.24 C 201.26 26.29 211.06 26.20 220.86 26.29 C 219.10 29.28 217.34 32.27 215.60 35.27 C 212.54 34.91 209.49 34.53 206.44 34.07 C 207.24 32.72 208.04 31.37 208.84 30.02 C 199.29 29.96 189.73 30.02 180.17 29.99 Z" />
</g>
<g id="#fa5326ff">
<path fill="#fa5326" opacity="1.00" d=" M 228.33 26.08 C 231.38 26.05 234.43 25.99 237.49 25.91 C 237.31 27.59 237.13 29.26 236.96 30.94 C 233.91 30.96 230.86 30.99 227.81 31.04 C 227.98 29.38 228.16 27.73 228.33 26.08 Z" />
</g>
<g id="#f8381aff">
<path fill="#f8381a" opacity="1.00" d=" M 0.00 28.41 C 0.42 28.02 1.27 27.24 1.69 26.85 C 3.89 26.94 6.09 27.00 8.28 27.01 C 11.49 28.97 13.69 32.08 16.40 34.60 C 19.42 37.53 23.93 37.65 27.72 38.93 C 27.18 38.10 26.59 37.31 26.04 36.50 C 26.26 34.80 25.92 32.71 27.57 31.60 C 30.33 28.88 34.13 31.24 37.10 32.24 C 38.21 30.60 39.35 28.97 40.31 27.23 C 41.36 27.97 42.43 28.70 43.50 29.43 C 42.72 30.94 41.86 32.41 41.01 33.89 C 44.64 35.51 51.22 35.85 50.52 41.31 C 49.28 40.88 48.04 40.43 46.81 39.98 C 41.05 37.87 35.52 35.04 29.48 33.82 C 29.97 35.98 31.30 37.77 32.45 39.62 C 33.33 40.43 32.25 42.10 31.14 41.79 C 24.71 42.18 17.27 41.41 12.80 36.20 C 10.25 34.00 8.35 30.52 5.00 29.59 C 2.82 28.70 2.96 31.90 3.53 33.06 C 4.50 36.03 6.60 38.45 8.53 40.85 C 6.75 40.66 4.97 40.44 3.20 40.18 C 2.01 38.36 0.95 36.45 0.00 34.49 L 0.00 28.41 Z" />
<path fill="#f8381a" opacity="1.00" d=" M 108.44 33.01 C 110.94 32.88 113.45 32.67 115.93 32.32 C 116.10 34.53 116.28 36.74 116.48 38.94 C 113.91 38.91 111.35 38.89 108.78 38.87 C 108.62 36.92 108.49 34.96 108.44 33.01 Z" />
</g>
<g id="#f94721ff">
<path fill="#f94721" opacity="1.00" d=" M 75.83 28.95 C 81.01 28.91 86.19 28.93 91.36 28.96 C 91.50 30.65 91.64 32.34 91.77 34.04 C 89.25 34.36 86.72 34.65 84.20 34.96 C 84.03 33.15 83.82 31.35 83.57 29.56 C 82.97 31.43 82.40 33.30 81.82 35.18 C 79.30 34.71 76.77 34.34 74.22 34.07 C 74.76 32.37 75.30 30.66 75.83 28.95 Z" />
</g>
<g id="#f94821ff">
<path fill="#f94821" opacity="1.00" d=" M 243.61 34.59 C 244.85 32.54 246.22 30.57 247.64 28.64 C 253.39 29.19 259.16 29.07 264.93 29.04 C 265.75 30.60 266.54 32.18 267.33 33.77 C 264.36 33.97 261.38 34.15 258.41 34.32 L 258.21 34.33 C 257.55 32.88 256.87 31.45 256.19 30.01 C 254.87 31.80 253.56 33.60 252.28 35.41 C 249.38 35.25 246.48 34.99 243.61 34.59 Z" />
</g>
<g id="#f93d1cff">
<path fill="#f93d1c" opacity="1.00" d=" M 128.25 30.68 C 131.32 30.10 134.45 30.16 137.55 30.30 C 137.42 30.64 137.15 31.34 137.02 31.68 C 143.70 31.57 150.39 31.80 157.07 31.60 C 160.49 30.91 163.82 29.75 167.31 29.38 C 167.29 29.96 167.26 31.12 167.24 31.70 C 168.52 31.68 169.80 31.67 171.08 31.65 C 171.00 32.53 170.83 34.28 170.74 35.15 C 169.40 35.19 168.07 35.22 166.73 35.27 C 166.62 36.47 166.50 37.67 166.38 38.88 C 163.68 38.89 160.98 38.91 158.29 38.94 C 158.41 37.69 158.54 36.44 158.67 35.20 C 150.96 35.22 143.24 35.11 135.53 35.26 C 134.57 37.81 133.56 40.34 132.56 42.86 C 129.61 42.68 126.65 42.58 123.70 42.54 C 125.24 38.60 126.76 34.65 128.25 30.68 Z" />
</g>
<g id="#f9411eff">
<path fill="#f9411e" opacity="1.00" d=" M 227.81 31.04 C 230.86 30.99 233.91 30.96 236.96 30.94 C 236.75 32.96 236.53 34.99 236.32 37.01 C 233.29 36.95 230.25 36.83 227.22 36.66 C 227.42 34.79 227.61 32.91 227.81 31.04 Z" />
</g>
<g id="#f83418ff">
<path fill="#f83418" opacity="1.00" d=" M 98.84 32.83 C 101.43 32.93 104.01 33.06 106.60 33.24 C 105.92 35.88 105.11 38.49 104.25 41.09 C 101.85 40.98 99.46 40.85 97.07 40.67 L 96.34 40.62 C 97.17 38.02 98.01 35.42 98.84 32.83 Z" />
</g>
<g id="#f72913ff">
<path fill="#f72913" opacity="1.00" d=" M 70.89 44.70 C 72.01 41.16 73.11 37.62 74.22 34.07 C 76.77 34.34 79.30 34.71 81.82 35.18 C 80.79 38.51 79.72 41.82 78.66 45.14 C 76.08 44.94 73.48 44.80 70.89 44.70 Z" />
</g>
<g id="#f82913ff">
<path fill="#f82913" opacity="1.00" d=" M 84.20 34.96 C 86.72 34.65 89.25 34.36 91.77 34.04 C 92.09 37.63 92.27 41.24 92.61 44.84 C 90.05 44.79 87.49 44.75 84.93 44.73 C 84.67 41.47 84.46 38.22 84.20 34.96 Z" />
</g>
<g id="#f83518ff">
<path fill="#f83518" opacity="1.00" d=" M 179.79 34.35 C 183.76 34.35 187.74 34.37 191.71 34.34 C 193.37 36.04 195.01 37.75 196.65 39.46 C 192.95 39.79 189.25 40.05 185.54 40.29 C 183.60 38.33 181.68 36.36 179.79 34.35 Z" />
</g>
<g id="#f83116ff">
<path fill="#f83116" opacity="1.00" d=" M 202.99 39.91 C 204.13 37.96 205.29 36.01 206.44 34.07 C 209.49 34.53 212.54 34.91 215.60 35.27 C 214.62 36.96 213.64 38.65 212.66 40.33 C 209.44 40.12 206.21 39.97 202.99 39.91 Z" />
</g>
<g id="#f83619ff">
<path fill="#f83619" opacity="1.00" d=" M 258.41 34.32 C 261.38 34.15 264.36 33.97 267.33 33.77 C 268.19 35.50 269.06 37.23 269.92 38.96 C 266.84 38.99 263.75 39.04 260.66 39.09 C 259.88 37.51 259.13 35.92 258.41 34.32 Z" />
</g>
<g id="#f82b14ff">
<path fill="#f82b14" opacity="1.00" d=" M 243.31 34.56 L 243.61 34.59 C 246.48 34.99 249.38 35.25 252.28 35.41 C 250.12 38.42 247.91 41.39 245.85 44.45 C 242.70 44.56 239.54 44.55 236.39 44.52 C 238.70 41.20 241.13 37.96 243.31 34.56 Z" />
</g>
<g id="#f72b14ff">
<path fill="#f72b14" opacity="1.00" d=" M 226.63 42.25 C 226.82 40.39 227.02 38.53 227.22 36.66 C 230.25 36.83 233.29 36.95 236.32 37.01 C 236.13 38.85 235.93 40.70 235.74 42.55 C 232.70 42.46 229.67 42.36 226.63 42.25 Z" />
</g>
<g id="#f82712ff">
<path fill="#f82712" opacity="1.00" d=" M 139.14 37.46 C 142.02 37.46 144.90 37.46 147.78 37.57 C 148.09 39.17 148.41 40.77 148.73 42.37 C 146.02 42.91 143.25 43.08 140.48 43.05 C 140.04 41.19 139.59 39.33 139.14 37.46 Z" />
</g>
<g id="#f72210ff">
<path fill="#f72210" opacity="1.00" d=" M 108.78 38.87 C 111.35 38.89 113.91 38.91 116.48 38.94 C 116.62 40.84 116.73 42.74 116.77 44.65 C 114.27 44.78 111.77 44.91 109.27 45.03 C 109.10 42.98 108.94 40.92 108.78 38.87 Z" />
</g>
<g id="#f71f0eff">
<path fill="#f71f0e" opacity="1.00" d=" M 158.29 38.94 C 160.98 38.91 163.68 38.89 166.38 38.88 C 166.17 40.99 165.94 43.09 165.72 45.20 C 163.03 45.16 160.33 45.13 157.64 45.11 C 157.89 43.06 158.07 41.00 158.29 38.94 Z" />
</g>
<g id="#f72310ff">
<path fill="#f72310" opacity="1.00" d=" M 260.66 39.09 C 263.75 39.04 266.84 38.99 269.92 38.96 C 270.85 40.81 271.77 42.67 272.70 44.53 C 269.54 44.55 266.38 44.56 263.23 44.45 C 262.41 42.64 261.55 40.86 260.66 39.09 Z" />
</g>
<g id="#f60502ff">
<path fill="#f60502" opacity="1.00" d=" M 3.20 40.18 C 4.97 40.44 6.75 40.66 8.53 40.85 C 12.21 44.47 16.59 48.05 22.03 48.13 C 30.22 48.34 38.42 48.08 46.62 48.33 C 46.75 45.55 46.78 42.76 46.81 39.98 C 48.04 40.43 49.28 40.88 50.52 41.31 C 50.54 44.56 50.75 47.88 49.68 51.00 L 18.31 51.00 C 11.88 50.04 7.20 44.89 3.20 40.18 Z" />
</g>
<g id="#f71f0fff">
<path fill="#f71f0f" opacity="1.00" d=" M 185.54 40.29 C 189.25 40.05 192.95 39.79 196.65 39.46 C 198.02 40.87 199.39 42.28 200.77 43.69 C 201.50 42.43 202.24 41.17 202.99 39.91 C 206.21 39.97 209.44 40.12 212.66 40.33 C 211.85 41.73 211.03 43.13 210.21 44.53 C 207.35 44.52 204.49 44.49 201.64 44.70 C 197.95 45.02 194.26 45.23 190.56 45.39 C 188.89 43.69 187.21 41.99 185.54 40.29 Z" />
</g>
<g id="#f61409ff">
<path fill="#f61409" opacity="1.00" d=" M 96.31 40.61 L 97.07 40.67 C 99.46 40.85 101.85 40.98 104.25 41.09 C 103.24 44.31 102.22 47.53 101.20 50.75 C 98.75 50.76 96.29 50.77 93.85 50.84 C 93.89 47.28 95.30 43.97 96.31 40.61 Z" />
<path fill="#f61409" opacity="1.00" d=" M 148.73 42.37 L 148.86 42.34 C 149.35 44.43 149.87 46.51 150.41 48.59 C 147.60 48.70 144.79 48.71 141.98 48.74 C 141.45 46.85 140.96 44.95 140.48 43.05 C 143.25 43.08 146.02 42.91 148.73 42.37 Z" />
</g>
<g id="#f60603ff">
<path fill="#f60603" opacity="1.00" d=" M 226.63 42.25 C 229.67 42.36 232.70 42.46 235.74 42.55 C 235.58 44.02 235.42 45.50 235.26 46.98 C 247.86 47.08 260.46 47.00 273.06 47.03 C 272.92 48.35 272.78 49.68 272.65 51.00 L 225.72 51.00 C 226.02 48.08 226.32 45.17 226.63 42.25 Z" />
</g>
<g id="#f61108ff">
<path fill="#f61108" opacity="1.00" d=" M 123.70 42.54 C 126.65 42.58 129.61 42.68 132.56 42.86 C 131.80 44.78 131.06 46.70 130.33 48.63 C 127.33 48.69 124.33 48.70 121.33 48.69 C 122.12 46.64 122.90 44.59 123.70 42.54 Z" />
</g>
<g id="#f60c05ff">
<path fill="#f60c05" opacity="1.00" d=" M 70.89 44.70 C 73.48 44.80 76.08 44.94 78.66 45.14 C 78.08 47.00 77.51 48.87 76.94 50.73 C 74.30 50.76 71.66 50.78 69.02 50.79 C 69.63 48.76 70.26 46.73 70.89 44.70 Z" />
<path fill="#f60c05" opacity="1.00" d=" M 109.27 45.03 C 111.77 44.91 114.27 44.78 116.77 44.65 L 116.97 44.64 C 117.09 46.68 117.23 48.73 117.37 50.77 C 114.81 50.77 112.26 50.77 109.70 50.75 C 109.55 48.84 109.41 46.94 109.27 45.03 Z" />
</g>
<g id="#f60c06ff">
<path fill="#f60c06" opacity="1.00" d=" M 84.93 44.73 C 87.49 44.75 90.05 44.79 92.61 44.84 C 92.80 46.16 93.03 47.48 93.30 48.79 C 92.91 49.45 92.52 50.10 92.12 50.76 C 89.96 50.78 87.81 50.87 85.66 51.00 L 85.51 51.00 C 85.30 48.91 85.10 46.82 84.93 44.73 Z" />
</g>
<g id="#f60904ff">
<path fill="#f60904" opacity="1.00" d=" M 157.64 45.11 C 160.33 45.13 163.03 45.16 165.72 45.20 C 165.52 47.13 165.31 49.07 165.11 51.00 L 155.34 51.00 C 156.22 49.09 157.06 47.14 157.64 45.11 Z" />
<path fill="#f60904" opacity="1.00" d=" M 190.56 45.39 C 194.26 45.23 197.95 45.02 201.64 44.70 C 203.89 46.78 206.06 48.96 208.35 51.00 L 196.14 51.00 C 194.20 49.21 192.41 47.27 190.56 45.39 Z" />
</g>
</svg>
